<mxfile host="app.diagrams.net" modified="2020-12-24T05:08:36.658Z" agent="5.0 (Windows)" etag="Aml17bD0ahDC81mjXkL4" version="13.9.9" type="github">
  <diagram name="Page-1" id="e7e014a7-5840-1c2e-5031-d8a46d1fe8dd">
    <mxGraphModel dx="1038" dy="575" grid="1" gridSize="10" guides="1" tooltips="1" connect="1" arrows="1" fold="1" page="1" pageScale="1" pageWidth="1169" pageHeight="826" background="#ffffff" math="0" shadow="0">
      <root>
        <mxCell id="0" />
        <mxCell id="1" parent="0" />
        <mxCell id="WNVrMkYCtj4Nlr6T03H6-57" value="" style="shape=umlLifeline;participant=umlActor;perimeter=lifelinePerimeter;whiteSpace=wrap;html=1;container=1;collapsible=0;recursiveResize=0;verticalAlign=top;spacingTop=36;outlineConnect=0;" vertex="1" parent="1">
          <mxGeometry x="160" y="80" width="20" height="480" as="geometry" />
        </mxCell>
        <mxCell id="WNVrMkYCtj4Nlr6T03H6-60" value=": Cliente" style="text;html=1;align=center;verticalAlign=middle;resizable=0;points=[];autosize=1;" vertex="1" parent="1">
          <mxGeometry x="110" y="120" width="60" height="20" as="geometry" />
        </mxCell>
        <mxCell id="WNVrMkYCtj4Nlr6T03H6-63" value="" style="shape=umlLifeline;participant=umlBoundary;perimeter=lifelinePerimeter;whiteSpace=wrap;html=1;container=1;collapsible=0;recursiveResize=0;verticalAlign=top;spacingTop=36;outlineConnect=0;" vertex="1" parent="1">
          <mxGeometry x="310" y="80" width="50" height="480" as="geometry" />
        </mxCell>
        <mxCell id="WNVrMkYCtj4Nlr6T03H6-65" value=": Interface_Reserva" style="text;html=1;align=center;verticalAlign=middle;resizable=0;points=[];autosize=1;" vertex="1" parent="1">
          <mxGeometry x="220" y="120" width="120" height="20" as="geometry" />
        </mxCell>
        <mxCell id="WNVrMkYCtj4Nlr6T03H6-66" value="" style="shape=umlLifeline;participant=umlControl;perimeter=lifelinePerimeter;whiteSpace=wrap;html=1;container=1;collapsible=0;recursiveResize=0;verticalAlign=top;spacingTop=36;outlineConnect=0;" vertex="1" parent="1">
          <mxGeometry x="480" y="80" width="40" height="480" as="geometry" />
        </mxCell>
      </root>
    </mxGraphModel>
  </diagram>
</mxfile>
